HIERARCHY
ROOT hip
{
  OFFSET 0.0 0.0 0.0
  CHANNELS 6 Xposition Yposition Zposition Zrotation Yrotation Xrotation
  JOINT torso
  {
    OFFSET 0.0 0.0 0.0
    CHANNELS 3 Zrotation Xrotation Yrotation
    JOINT neck
    {
      OFFSET -31.42098999999993 328.8025209999999 74.3554680000002
      CHANNELS 3 Zrotation Xrotation Yrotation
      JOINT head
      {
        OFFSET 3.3519900000001144 303.81732099999994 206.53942900000015
        CHANNELS 3 Zrotation Xrotation Yrotation
        End Site
        {
          OFFSET 0.0 0.0 0.0
        }
      }
    }
    JOINT left_collar
    {
      OFFSET -31.42098999999993 328.8025209999999 74.3554680000002
      CHANNELS 3 Zrotation Xrotation Yrotation
      JOINT left_upper_arm
      {
        OFFSET -124.490479 -8.162841999999841 8.226441000000023
        CHANNELS 3 Zrotation Xrotation Yrotation
        JOINT left_forearm
        {
          OFFSET -253.595764 -1.5758060000000569 105.0729980000001
          CHANNELS 3 Zrotation Xrotation Yrotation
          JOINT left_hand
          {
            OFFSET -269.48803699999996 0.1478270000000066 -55.346191999999974
            CHANNELS 3 Zrotation Xrotation Yrotation
            End Site
            {
              OFFSET 0.0 0.0 0.0
            }
          }
        }
      }
    }
    JOINT right_collar
    {
      OFFSET -31.42098999999993 328.8025209999999 74.3554680000002
      CHANNELS 3 Zrotation Xrotation Yrotation
      JOINT right_upper_arm
      {
        OFFSET 162.02484099999998 0.46441600000002836 2.2303470000001653
        CHANNELS 3 Zrotation Xrotation Yrotation
        JOINT right_forearm
        {
          OFFSET 240.01246700000004 -25.835875999999985 121.34179699999959
          CHANNELS 3 Zrotation Xrotation Yrotation
          JOINT right_hand
          {
            OFFSET 252.48539699999992 18.910399999999868 -67.53466800000001
            CHANNELS 3 Zrotation Xrotation Yrotation
            End Site
            {
              OFFSET 0.0 0.0 0.0
            }
          }
        }
      }
    }
  }
}
MOTION
Frames: 16
Frame Time: 0.01
-261.0647279999997 262.98315399999973 1592.366455 1.7009528219117938 -10.151397366770352 7.691345603622959 3.0415445632334355 2.9415452270269093 -0.33146890272516505 0.32069083254751857 1.6176458432602356 -0.23356608050361952 0.0 0.0 0.0 -1.4386095068421874 0.3609634864219664 -8.557961867299621 56.770729335828584 24.60098281905439 1.1837824716354652 21.947709869783356 -2.9447681497822114 -8.13045881416732 0.0 0.0 0.0 -7.260429504511259 -0.2671001361597415 -6.059619733313995 -46.050399479785 22.365626427873206 -4.745605282187845 -42.4829188051357 -3.4623177076802127 25.51030174622925 0.0 0.0 0.0
-261.2350459999997 262.6463619999997 1593.206177 1.4447828476236124 -10.445324654307877 7.2496650685534725 3.239242047374787 3.169118133878877 -0.3432370083616221 0.16348181706940007 1.6534516411435851 -0.12827829516768746 0.0 0.0 0.0 -1.3609664025700325 0.34776287232781566 -8.11307972711092 56.730298525587244 24.68273025434257 1.0159264762759843 21.941702165623905 -2.946102328706371 -8.119477167954047 0.0 0.0 0.0 -7.13598421768574 -0.23532517960210442 -5.608184657965458 -45.932674344689985 22.419159757363552 -4.553250169683587 -42.494446563702326 -3.4769822514415494 25.464576599581065 0.0 0.0 0.0
-261.4459529999997 262.30361899999974 1594.148071 1.0947597626931074 -11.024744769505137 6.887616846904653 3.5349502328761773 3.6516757542570004 -0.34131301810538983 0.07388534205603128 1.7044707361262383 -0.06862944528526055 0.0 0.0 0.0 -1.325529309290124 0.3326146242684311 -7.746690498470168 56.70477069659956 24.783725741131637 0.8286241854244597 21.930024583195227 -2.9463060766904188 -8.110277540523652 0.0 0.0 0.0 -7.080176620021622 -0.21063169529207812 -5.2234115043608 -45.87974700918685 22.515951903067567 -4.350147533119797 -42.348795003648796 -3.4796365468807147 25.43646162786748 0.0 0.0 0.0
-261.6295469999997 262.01507599999974 1595.120239 0.5984146799103669 -11.75870252602105 6.707438501132223 3.9968871526412104 4.286237307577748 -0.34891470971971794 0.016398476866548474 1.6990612367290139 -0.029953628572860942 0.0 0.0 0.0 -1.4735411792568511 0.30371127394336156 -7.577920704673001 56.84145366825329 24.886769225496444 0.7724826858583215 21.933649581205497 -2.9470521368037654 -8.109015665913658 0.0 0.0 0.0 -6.9429643650677635 -0.1922279563678853 -4.980999938638219 -54.05162067153267 24.813262671871243 -7.844330698457632 -32.183772937119755 -4.0333662444301615 20.929755791050084 0.0 0.0 0.0
-261.8082889999997 260.97387699999973 1597.171387 0.638313929961186 -13.995166286779511 7.074056442241152 4.008863689022507 6.062854485507631 -0.11641235702920379 0.26017254890384234 2.018316780494719 -0.19690951081967686 0.0 0.0 0.0 -1.6461179630129479 0.315618193067322 -8.250633837250694 56.810240079116575 25.083137165611614 0.42456980701725716 21.75609925146526 -2.9087359210988724 -8.180476936030265 0.0 0.0 0.0 -7.075148249778144 -0.2322424338146905 -5.592352145502398 -53.99223405748847 25.085073054395373 -7.416072832551062 -31.924951384702965 -4.004083585993886 20.968972911133193 0.0 0.0 0.0
-262.0274659999997 260.12066699999974 1599.691528 1.2563357840101184 -12.0003097329563 8.615731963921455 3.3859783790163958 3.4013693085851866 -0.34350435912501687 0.7826456184033155 2.4860028295951238 -0.5505880846367031 0.0 0.0 0.0 -1.9598891205635909 0.3396259062212447 -9.62633894154402 56.75546849850063 25.318179692566293 -0.0062464505940726745 21.55485227130363 -2.8584281117626236 -8.298685208663464 0.0 0.0 0.0 -7.360314685835037 -0.3216736853874277 -6.882469775830532 -53.99083955694531 25.471183245231188 -6.874803837706219 -31.487189541168057 -3.97060739807324 20.960621499438094 0.0 0.0 0.0
-262.2235719999997 259.6218259999997 1601.150879 1.2026136959111593 -12.479252981343258 8.522949681352388 3.400343457846133 3.6379914469353456 -0.316560264577121 0.7999584725463876 2.6569856513063916 -0.5634347553497433 0.0 0.0 0.0 -1.9613078933947379 0.33642840593223705 -9.565718396133647 56.665672923409645 25.436809060862558 -0.27613104222946494 21.495722759787512 -2.8344102932702806 -8.381886811099683 0.0 0.0 0.0 -7.3739734333460545 -0.32023830209392323 -6.848907057381391 -53.85760920904424 25.679889945379244 -6.475367699577179 -31.345594194950234 -3.9830198336781364 20.84585593028657 0.0 0.0 0.0
-262.3822329999997 259.1420899999997 1602.674194 1.2812898317624508 -12.60010941612916 8.485411534243328 3.2878109654863668 3.4623599066586785 -0.3163711307678581 0.8253078985412909 2.8865886572514525 -0.5820440212484734 0.0 0.0 0.0 -2.089173402679479 0.31138082758869146 -9.445317697718856 56.77231796264834 25.64203167492472 -0.5214697524446344 21.422998933805335 -2.8108710132837644 -8.453586409405826 0.0 0.0 0.0 -7.330001596984 -0.3235057647666221 -6.935345295596782 -53.76030033288829 25.890120111741165 -6.102296313200299 -31.31256963310998 -3.9789987709565966 20.852280505946055 0.0 0.0 0.0
-262.5582889999997 258.58117699999974 1604.342285 1.2103873573376465 -12.875711942247174 8.368258424029838 3.3024210503196834 3.538577825820202 -0.309733216208379 0.8133754336731882 2.973363853861731 -0.5747465684782388 0.0 0.0 0.0 -1.989668749091642 0.32848616956725063 -9.490742756671365 56.754149471462995 25.69078798203759 -0.6164671225684667 21.194137130043377 -2.7565172825255426 -8.578578741325025 0.0 0.0 0.0 -7.413811530383389 -0.3134388796089739 -6.709631734291468 -53.4938922889634 25.9450420501745 -5.806710674494967 -31.154586074741616 -3.9422340430053366 20.968527842876338 0.0 0.0 0.0
-262.7090759999997 258.0452579999997 1605.960449 1.1911296241681963 -13.174192086616383 8.453495589928558 3.205165091983055 3.6540053552486698 -0.276168553166359 1.0288341161410395 3.0205229715349233 -0.7184384246619447 0.0 0.0 0.0 -1.4550968421739385 0.4244289656517455 -9.783820922100304 56.12166070296027 25.65236977684647 -1.0944460656016088 21.0663659298336 -2.7408481298349514 -8.571710542644905 0.0 0.0 0.0 -7.631066314055808 -0.3169757458805203 -6.612063262278555 -53.04467792541852 26.040118932043374 -5.3007455282945175 -30.831514447722494 -3.9326422458583385 20.88794249945374 0.0 0.0 0.0
-262.79821799999974 257.51379399999973 1607.676514 1.1105342993045606 -13.428092808016524 8.368759471386207 3.246795342012761 3.682932292191557 -0.28074451575681286 1.0406503313707474 3.1016605313727994 -0.7268170844929244 0.0 0.0 0.0 -1.5503864986203626 0.4076648989311613 -9.741921777410068 56.12266142999532 25.776797028626703 -1.2985090470567837 21.019380296673322 -2.727939875987952 -8.607203115902962 0.0 0.0 0.0 -7.520124055240719 -0.3061025058745247 -6.517145029814134 -53.04228717321589 26.14527688454116 -5.1506728207992944 -30.78666610055466 -3.910616864004808 20.978871039045885 0.0 0.0 0.0
-262.9103089999997 256.9833679999997 1609.403076 1.0608311537871469 -13.66907763610178 8.32774676770877 3.263171845221578 3.641338362312773 -0.28915283685787196 1.0542601799389972 3.279893148387719 -0.7369931802178286 0.0 0.0 0.0 -1.647303221510948 0.3865996230076754 -9.620695592108332 55.96405684377637 25.96428185501421 -1.7450359980422365 21.10652863618863 -2.7491821798615925 -8.555811863960782 0.0 0.0 0.0 -7.505285641089419 -0.30897391728853824 -6.573073679401797 -52.90768435969149 26.347247195749038 -4.753415454579 -30.747579618055994 -3.902339830431656 21.004355672975077 0.0 0.0 0.0
-262.9197999999997 256.4880979999997 1611.138672 1.0873806842145581 -13.816972867182857 8.226786395374708 3.1888323807993233 3.626709039020068 -0.27634837180078675 1.0881793469311563 3.2863922141742847 -0.7595554628698911 0.0 0.0 0.0 -1.5148480537202416 0.41861367420123213 -9.84593850686829 55.90166772713077 25.93177278502919 -1.7459281887892255 20.826447568142346 -2.6922323237143178 -8.66179889436852 0.0 0.0 0.0 -7.582679199193266 -0.29964804423098335 -6.3728477161837285 -52.680594249271394 26.430806492314233 -4.44374377263436 -30.56426581129533 -3.886818233431341 21.00878363556734 0.0 0.0 0.0
-262.96923799999973 255.92219499999965 1612.918091 0.9921180175453279 -14.124630794910917 7.989963413109663 3.2354946903356905 3.728783757682315 -0.27281101498898686 1.0542765406449601 3.3812516279735796 -0.737646268518898 0.0 0.0 0.0 -1.5113261732520848 0.4090679635377437 -9.65656248721368 55.83540315227865 26.06520563757107 -2.023997506081207 20.725656284085648 -2.6740025558147384 -8.688478333618017 0.0 0.0 0.0 -7.520893946458534 -0.28496062076980017 -6.180804535000251 -52.56383419974603 26.588510644647304 -4.121879079723052 -30.477882367775866 -3.8811114142583714 21.0028535946913 0.0 0.0 0.0
-262.9146729999997 255.36695899999967 1614.747437 0.9290872731583097 -14.311842178064747 8.02459298424361 3.273412920679635 3.662571788287516 -0.28851458294097243 1.107990240511569 3.498304490304918 -0.7739972075393856 0.0 0.0 0.0 -1.6037795083832427 0.398340944549172 -9.71915882129258 55.78552849990035 26.20500612954119 -2.298362014685147 20.675252698269624 -2.669475940122853 -8.677081887209926 0.0 0.0 0.0 -7.549465245243032 -0.28935979548693297 -6.232166982127952 -52.46532811737648 26.764083305706674 -3.7898051275125884 -30.398852755443453 -3.8661560734754614 21.04637175659381 0.0 0.0 0.0
-262.97274799999974 254.80914299999966 1616.62085 0.8297296362605168 -14.660718064009355 7.824004515083455 3.2667384553238277 3.93118166233102 -0.2536385298354866 1.1984470391406832 3.3232860243674005 -0.8329764407169009 0.0 0.0 0.0 -1.8480609527119325 0.3701242821098916 -9.896823722759684 56.08420936433976 26.242021808973266 -2.0965171155065208 20.598491229992227 -2.656011380913562 -8.695334695606094 0.0 0.0 0.0 -7.227394012473167 -0.2553321590409771 -5.886172484465423 -52.55235999667839 26.805842467058305 -3.8055486695441068 -30.306971530494007 -3.857923570850758 21.051120270936362 0.0 0.0 0.0
